<svg xmlns="http://www.w3.org/2000/svg" viewBox="0 0 512 512" role="img" aria-label="Summoner guide app icon">
  <defs>
    <radialGradient id="bgGlow" cx="50%" cy="36%" r="72%">
      <stop offset="0" stop-color="#315b86"/>
      <stop offset="0.54" stop-color="#132a3d"/>
      <stop offset="1" stop-color="#07111c"/>
    </radialGradient>
    <linearGradient id="gold" x1="92" y1="48" x2="420" y2="464" gradientUnits="userSpaceOnUse">
      <stop offset="0" stop-color="#fff0a8"/>
      <stop offset="0.34" stop-color="#d7b46a"/>
      <stop offset="0.66" stop-color="#9c6821"/>
      <stop offset="1" stop-color="#f6d989"/>
    </linearGradient>
    <linearGradient id="crystal" x1="216" y1="112" x2="300" y2="350" gradientUnits="userSpaceOnUse">
      <stop offset="0" stop-color="#c8fff2"/>
      <stop offset="0.36" stop-color="#44d8bb"/>
      <stop offset="1" stop-color="#0e6c69"/>
    </linearGradient>
    <filter id="softShadow" x="-20%" y="-20%" width="140%" height="140%">
      <feDropShadow dx="0" dy="16" stdDeviation="14" flood-color="#000" flood-opacity="0.42"/>
    </filter>
  </defs>
  <rect width="512" height="512" rx="106" fill="url(#bgGlow)"/>
  <rect x="24" y="24" width="464" height="464" rx="88" fill="none" stroke="url(#gold)" stroke-width="18"/>
  <circle cx="256" cy="246" r="160" fill="none" stroke="#d7b46a" stroke-opacity="0.4" stroke-width="7"/>
  <circle cx="256" cy="246" r="120" fill="none" stroke="#7ee6d2" stroke-opacity="0.32" stroke-width="4"/>
  <g stroke="#d7b46a" stroke-linecap="round" opacity="0.72">
    <path d="M256 72v44M256 376v64M72 256h48M392 256h48" stroke-width="7"/>
    <path d="M126 126l34 34M352 352l44 44M386 126l-34 34M160 352l-44 44" stroke-width="5"/>
  </g>
  <g filter="url(#softShadow)">
    <path d="M126 292c42-20 83-20 124 0v112c-43-22-84-22-124 0z" fill="#fff5da" stroke="#d7b46a" stroke-width="10" stroke-linejoin="round"/>
    <path d="M262 292c41-20 83-20 124 0v112c-41-22-82-22-124 0z" fill="#f6e7bd" stroke="#d7b46a" stroke-width="10" stroke-linejoin="round"/>
    <path d="M256 290v116" stroke="#9c6821" stroke-width="8" stroke-linecap="round"/>
    <path d="M152 323c25-8 48-8 72 0M290 323c25-8 48-8 72 0M152 354c24-7 48-7 72 1M290 354c24-7 48-7 72 1" stroke="#46606c" stroke-opacity="0.38" stroke-width="7" stroke-linecap="round"/>
  </g>
  <g filter="url(#softShadow)">
    <path d="M256 84l76 72-28 154-48 62-48-62-28-154z" fill="url(#crystal)" stroke="#d7b46a" stroke-width="10" stroke-linejoin="round"/>
    <path d="M256 84v288M180 156l76 44 76-44M208 310l48-110 48 110" fill="none" stroke="#e9fff9" stroke-opacity="0.5" stroke-width="8" stroke-linecap="round" stroke-linejoin="round"/>
  </g>
  <path d="M145 109c18 20 43 27 75 21-22 21-30 46-23 75-22-17-47-22-76-14 16-22 24-50 24-82z" fill="#fff3b7" opacity="0.88"/>
  <path d="M381 83c8 14 20 23 37 27-15 9-24 22-27 39-9-15-22-24-39-27 14-8 24-21 29-39z" fill="#bfffee" opacity="0.86"/>
</svg>
